<mxfile host="app.diagrams.net" modified="2024-06-04T03:39:19.158Z" agent="Mozilla/5.0 (Macintosh; Intel Mac OS X 10_15_7) AppleWebKit/537.36 (KHTML, like Gecko) Chrome/125.0.0.0 Safari/537.36" etag="DsH82Fr7-WiRK_roZQdc" version="24.4.13" type="github">
  <diagram name="第 1 页" id="XzrXPrA8i7TcHiE94Jpr">
    <mxGraphModel dx="2120" dy="2271" grid="1" gridSize="10" guides="1" tooltips="1" connect="1" arrows="1" fold="1" page="1" pageScale="1" pageWidth="827" pageHeight="1169" math="0" shadow="0">
      <root>
        <mxCell id="0" />
        <mxCell id="1" parent="0" />
        <mxCell id="yWNfFhgkX5kj5r2zyp7w-1" style="edgeStyle=orthogonalEdgeStyle;rounded=0;orthogonalLoop=1;jettySize=auto;html=1;entryX=0;entryY=0.5;entryDx=0;entryDy=0;" edge="1" parent="1" source="yWNfFhgkX5kj5r2zyp7w-3" target="yWNfFhgkX5kj5r2zyp7w-6">
          <mxGeometry relative="1" as="geometry" />
        </mxCell>
        <mxCell id="yWNfFhgkX5kj5r2zyp7w-3" value="开始" style="rounded=1;whiteSpace=wrap;html=1;fillColor=#008a00;fontColor=#ffffff;strokeColor=#005700;" vertex="1" parent="1">
          <mxGeometry x="80" y="-130" width="90" height="40" as="geometry" />
        </mxCell>
        <mxCell id="yWNfFhgkX5kj5r2zyp7w-4" style="edgeStyle=orthogonalEdgeStyle;rounded=0;orthogonalLoop=1;jettySize=auto;html=1;entryX=0;entryY=0.5;entryDx=0;entryDy=0;" edge="1" parent="1" source="yWNfFhgkX5kj5r2zyp7w-6" target="yWNfFhgkX5kj5r2zyp7w-11">
          <mxGeometry relative="1" as="geometry" />
        </mxCell>
        <mxCell id="yWNfFhgkX5kj5r2zyp7w-6" value="请求墨迹广告服务器" style="whiteSpace=wrap;html=1;fillColor=#f0a30a;fontColor=#000000;strokeColor=#BD7000;" vertex="1" parent="1">
          <mxGeometry x="230" y="-140" width="120" height="60" as="geometry" />
        </mxCell>
        <mxCell id="yWNfFhgkX5kj5r2zyp7w-9" style="edgeStyle=orthogonalEdgeStyle;rounded=0;orthogonalLoop=1;jettySize=auto;html=1;entryX=0;entryY=0.5;entryDx=0;entryDy=0;" edge="1" parent="1" source="yWNfFhgkX5kj5r2zyp7w-11" target="yWNfFhgkX5kj5r2zyp7w-33">
          <mxGeometry relative="1" as="geometry">
            <mxPoint x="570" y="-200" as="targetPoint" />
          </mxGeometry>
        </mxCell>
        <mxCell id="yWNfFhgkX5kj5r2zyp7w-10" value="是" style="edgeLabel;html=1;align=center;verticalAlign=middle;resizable=0;points=[];" vertex="1" connectable="0" parent="yWNfFhgkX5kj5r2zyp7w-9">
          <mxGeometry x="-0.1101" y="-3" relative="1" as="geometry">
            <mxPoint as="offset" />
          </mxGeometry>
        </mxCell>
        <mxCell id="yWNfFhgkX5kj5r2zyp7w-37" style="edgeStyle=orthogonalEdgeStyle;rounded=0;orthogonalLoop=1;jettySize=auto;html=1;entryX=0;entryY=0.5;entryDx=0;entryDy=0;" edge="1" parent="1" source="yWNfFhgkX5kj5r2zyp7w-11" target="yWNfFhgkX5kj5r2zyp7w-36">
          <mxGeometry relative="1" as="geometry" />
        </mxCell>
        <mxCell id="yWNfFhgkX5kj5r2zyp7w-38" value="是" style="edgeLabel;html=1;align=center;verticalAlign=middle;resizable=0;points=[];" vertex="1" connectable="0" parent="yWNfFhgkX5kj5r2zyp7w-37">
          <mxGeometry x="0.0875" y="3" relative="1" as="geometry">
            <mxPoint as="offset" />
          </mxGeometry>
        </mxCell>
        <mxCell id="yWNfFhgkX5kj5r2zyp7w-43" style="edgeStyle=orthogonalEdgeStyle;rounded=0;orthogonalLoop=1;jettySize=auto;html=1;" edge="1" parent="1" source="yWNfFhgkX5kj5r2zyp7w-11" target="yWNfFhgkX5kj5r2zyp7w-42">
          <mxGeometry relative="1" as="geometry" />
        </mxCell>
        <mxCell id="yWNfFhgkX5kj5r2zyp7w-11" value="是否响应成功" style="rhombus;whiteSpace=wrap;html=1;rounded=0;fillColor=#d80073;fontColor=#ffffff;strokeColor=#A50040;" vertex="1" parent="1">
          <mxGeometry x="430" y="-150" width="80" height="80" as="geometry" />
        </mxCell>
        <mxCell id="yWNfFhgkX5kj5r2zyp7w-52" style="edgeStyle=orthogonalEdgeStyle;rounded=0;orthogonalLoop=1;jettySize=auto;html=1;entryX=0;entryY=0.5;entryDx=0;entryDy=0;" edge="1" parent="1" source="yWNfFhgkX5kj5r2zyp7w-18" target="yWNfFhgkX5kj5r2zyp7w-53">
          <mxGeometry relative="1" as="geometry">
            <mxPoint x="790" y="-320" as="targetPoint" />
          </mxGeometry>
        </mxCell>
        <mxCell id="yWNfFhgkX5kj5r2zyp7w-18" value="发起SDK请求" style="whiteSpace=wrap;html=1;fillColor=#f0a30a;fontColor=#000000;strokeColor=#BD7000;" vertex="1" parent="1">
          <mxGeometry x="576.5" y="-350" width="120" height="60" as="geometry" />
        </mxCell>
        <mxCell id="yWNfFhgkX5kj5r2zyp7w-34" value="" style="edgeStyle=orthogonalEdgeStyle;rounded=0;orthogonalLoop=1;jettySize=auto;html=1;" edge="1" parent="1" source="yWNfFhgkX5kj5r2zyp7w-33" target="yWNfFhgkX5kj5r2zyp7w-18">
          <mxGeometry relative="1" as="geometry" />
        </mxCell>
        <mxCell id="yWNfFhgkX5kj5r2zyp7w-35" value="是" style="edgeLabel;html=1;align=center;verticalAlign=middle;resizable=0;points=[];" vertex="1" connectable="0" parent="yWNfFhgkX5kj5r2zyp7w-34">
          <mxGeometry x="-0.046" y="-2" relative="1" as="geometry">
            <mxPoint x="1" as="offset" />
          </mxGeometry>
        </mxCell>
        <mxCell id="yWNfFhgkX5kj5r2zyp7w-54" style="edgeStyle=orthogonalEdgeStyle;rounded=0;orthogonalLoop=1;jettySize=auto;html=1;entryX=0.5;entryY=0;entryDx=0;entryDy=0;" edge="1" parent="1" source="yWNfFhgkX5kj5r2zyp7w-33" target="yWNfFhgkX5kj5r2zyp7w-51">
          <mxGeometry relative="1" as="geometry" />
        </mxCell>
        <mxCell id="yWNfFhgkX5kj5r2zyp7w-56" value="否" style="edgeLabel;html=1;align=center;verticalAlign=middle;resizable=0;points=[];" vertex="1" connectable="0" parent="yWNfFhgkX5kj5r2zyp7w-54">
          <mxGeometry x="-0.4486" y="-2" relative="1" as="geometry">
            <mxPoint as="offset" />
          </mxGeometry>
        </mxCell>
        <mxCell id="yWNfFhgkX5kj5r2zyp7w-33" value="是否有SDK广告" style="rhombus;whiteSpace=wrap;html=1;rounded=0;fillColor=#d80073;fontColor=#ffffff;strokeColor=#A50040;" vertex="1" parent="1">
          <mxGeometry x="590" y="-240" width="93" height="80" as="geometry" />
        </mxCell>
        <mxCell id="yWNfFhgkX5kj5r2zyp7w-40" value="" style="edgeStyle=orthogonalEdgeStyle;rounded=0;orthogonalLoop=1;jettySize=auto;html=1;" edge="1" parent="1" source="yWNfFhgkX5kj5r2zyp7w-36" target="yWNfFhgkX5kj5r2zyp7w-39">
          <mxGeometry relative="1" as="geometry" />
        </mxCell>
        <mxCell id="yWNfFhgkX5kj5r2zyp7w-41" value="是" style="edgeLabel;html=1;align=center;verticalAlign=middle;resizable=0;points=[];" vertex="1" connectable="0" parent="yWNfFhgkX5kj5r2zyp7w-40">
          <mxGeometry x="-0.092" y="-3" relative="1" as="geometry">
            <mxPoint x="1" as="offset" />
          </mxGeometry>
        </mxCell>
        <mxCell id="yWNfFhgkX5kj5r2zyp7w-47" value="" style="edgeStyle=orthogonalEdgeStyle;rounded=0;orthogonalLoop=1;jettySize=auto;html=1;entryX=0.5;entryY=1;entryDx=0;entryDy=0;" edge="1" parent="1" source="yWNfFhgkX5kj5r2zyp7w-36" target="yWNfFhgkX5kj5r2zyp7w-51">
          <mxGeometry relative="1" as="geometry">
            <mxPoint x="760" y="-59.94117647058829" as="targetPoint" />
          </mxGeometry>
        </mxCell>
        <mxCell id="yWNfFhgkX5kj5r2zyp7w-50" value="否" style="edgeLabel;html=1;align=center;verticalAlign=middle;resizable=0;points=[];" vertex="1" connectable="0" parent="yWNfFhgkX5kj5r2zyp7w-47">
          <mxGeometry x="-0.3698" relative="1" as="geometry">
            <mxPoint as="offset" />
          </mxGeometry>
        </mxCell>
        <mxCell id="yWNfFhgkX5kj5r2zyp7w-36" value="是否需要 API补充广告" style="rhombus;whiteSpace=wrap;html=1;rounded=0;fillColor=#d80073;fontColor=#ffffff;strokeColor=#A50040;" vertex="1" parent="1">
          <mxGeometry x="590" y="-70" width="93" height="80" as="geometry" />
        </mxCell>
        <mxCell id="yWNfFhgkX5kj5r2zyp7w-45" value="" style="edgeStyle=orthogonalEdgeStyle;rounded=0;orthogonalLoop=1;jettySize=auto;html=1;" edge="1" parent="1" source="yWNfFhgkX5kj5r2zyp7w-39" target="yWNfFhgkX5kj5r2zyp7w-44">
          <mxGeometry relative="1" as="geometry" />
        </mxCell>
        <mxCell id="yWNfFhgkX5kj5r2zyp7w-39" value="请求墨迹服务器获取API广告" style="whiteSpace=wrap;html=1;fillColor=#f0a30a;fontColor=#000000;strokeColor=#BD7000;" vertex="1" parent="1">
          <mxGeometry x="576.5" y="60" width="120" height="60" as="geometry" />
        </mxCell>
        <mxCell id="yWNfFhgkX5kj5r2zyp7w-59" style="edgeStyle=orthogonalEdgeStyle;rounded=0;orthogonalLoop=1;jettySize=auto;html=1;entryX=0;entryY=0.5;entryDx=0;entryDy=0;exitX=0.5;exitY=1;exitDx=0;exitDy=0;" edge="1" parent="1" source="yWNfFhgkX5kj5r2zyp7w-42" target="yWNfFhgkX5kj5r2zyp7w-58">
          <mxGeometry relative="1" as="geometry" />
        </mxCell>
        <mxCell id="yWNfFhgkX5kj5r2zyp7w-42" value="开启竞价计时器" style="whiteSpace=wrap;html=1;fillColor=#f0a30a;fontColor=#000000;strokeColor=#BD7000;" vertex="1" parent="1">
          <mxGeometry x="410" y="60" width="120" height="60" as="geometry" />
        </mxCell>
        <mxCell id="yWNfFhgkX5kj5r2zyp7w-48" value="" style="edgeStyle=orthogonalEdgeStyle;rounded=0;orthogonalLoop=1;jettySize=auto;html=1;" edge="1" parent="1" source="yWNfFhgkX5kj5r2zyp7w-44" target="yWNfFhgkX5kj5r2zyp7w-51">
          <mxGeometry relative="1" as="geometry">
            <mxPoint x="820" y="-30" as="targetPoint" />
          </mxGeometry>
        </mxCell>
        <mxCell id="yWNfFhgkX5kj5r2zyp7w-49" value="是" style="edgeLabel;html=1;align=center;verticalAlign=middle;resizable=0;points=[];" vertex="1" connectable="0" parent="yWNfFhgkX5kj5r2zyp7w-48">
          <mxGeometry x="-0.1903" relative="1" as="geometry">
            <mxPoint y="1" as="offset" />
          </mxGeometry>
        </mxCell>
        <mxCell id="yWNfFhgkX5kj5r2zyp7w-44" value="是否有API补充广告" style="rhombus;whiteSpace=wrap;html=1;rounded=0;fillColor=#d80073;fontColor=#ffffff;strokeColor=#A50040;" vertex="1" parent="1">
          <mxGeometry x="760" y="50" width="93" height="80" as="geometry" />
        </mxCell>
        <mxCell id="yWNfFhgkX5kj5r2zyp7w-66" value="" style="edgeStyle=orthogonalEdgeStyle;rounded=0;orthogonalLoop=1;jettySize=auto;html=1;" edge="1" parent="1" source="yWNfFhgkX5kj5r2zyp7w-51" target="yWNfFhgkX5kj5r2zyp7w-63">
          <mxGeometry relative="1" as="geometry" />
        </mxCell>
        <mxCell id="yWNfFhgkX5kj5r2zyp7w-67" value="否" style="edgeLabel;html=1;align=center;verticalAlign=middle;resizable=0;points=[];" vertex="1" connectable="0" parent="yWNfFhgkX5kj5r2zyp7w-66">
          <mxGeometry x="-0.1215" y="-1" relative="1" as="geometry">
            <mxPoint as="offset" />
          </mxGeometry>
        </mxCell>
        <mxCell id="yWNfFhgkX5kj5r2zyp7w-51" value="是否已经竞价完成" style="rhombus;whiteSpace=wrap;html=1;rounded=0;fillColor=#d80073;fontColor=#ffffff;strokeColor=#A50040;" vertex="1" parent="1">
          <mxGeometry x="760" y="-160" width="93" height="80" as="geometry" />
        </mxCell>
        <mxCell id="yWNfFhgkX5kj5r2zyp7w-55" style="edgeStyle=orthogonalEdgeStyle;rounded=0;orthogonalLoop=1;jettySize=auto;html=1;entryX=0.5;entryY=0;entryDx=0;entryDy=0;" edge="1" parent="1" source="yWNfFhgkX5kj5r2zyp7w-53" target="yWNfFhgkX5kj5r2zyp7w-51">
          <mxGeometry relative="1" as="geometry" />
        </mxCell>
        <mxCell id="yWNfFhgkX5kj5r2zyp7w-57" value="是" style="edgeLabel;html=1;align=center;verticalAlign=middle;resizable=0;points=[];" vertex="1" connectable="0" parent="yWNfFhgkX5kj5r2zyp7w-55">
          <mxGeometry x="-0.1775" relative="1" as="geometry">
            <mxPoint as="offset" />
          </mxGeometry>
        </mxCell>
        <mxCell id="yWNfFhgkX5kj5r2zyp7w-53" value="是否有SDK响应完成" style="rhombus;whiteSpace=wrap;html=1;rounded=0;fillColor=#d80073;fontColor=#ffffff;strokeColor=#A50040;" vertex="1" parent="1">
          <mxGeometry x="760" y="-360" width="93" height="80" as="geometry" />
        </mxCell>
        <mxCell id="yWNfFhgkX5kj5r2zyp7w-61" value="" style="edgeStyle=orthogonalEdgeStyle;rounded=0;orthogonalLoop=1;jettySize=auto;html=1;" edge="1" parent="1" source="yWNfFhgkX5kj5r2zyp7w-58" target="yWNfFhgkX5kj5r2zyp7w-60">
          <mxGeometry relative="1" as="geometry" />
        </mxCell>
        <mxCell id="yWNfFhgkX5kj5r2zyp7w-62" value="是" style="edgeLabel;html=1;align=center;verticalAlign=middle;resizable=0;points=[];" vertex="1" connectable="0" parent="yWNfFhgkX5kj5r2zyp7w-61">
          <mxGeometry x="-0.1413" y="-3" relative="1" as="geometry">
            <mxPoint as="offset" />
          </mxGeometry>
        </mxCell>
        <mxCell id="yWNfFhgkX5kj5r2zyp7w-58" value="是否倒计完成" style="rhombus;whiteSpace=wrap;html=1;rounded=0;fillColor=#d80073;fontColor=#ffffff;strokeColor=#A50040;" vertex="1" parent="1">
          <mxGeometry x="580" y="190" width="93" height="80" as="geometry" />
        </mxCell>
        <mxCell id="yWNfFhgkX5kj5r2zyp7w-64" style="edgeStyle=orthogonalEdgeStyle;rounded=0;orthogonalLoop=1;jettySize=auto;html=1;entryX=0.5;entryY=1;entryDx=0;entryDy=0;" edge="1" parent="1" source="yWNfFhgkX5kj5r2zyp7w-60" target="yWNfFhgkX5kj5r2zyp7w-63">
          <mxGeometry relative="1" as="geometry" />
        </mxCell>
        <mxCell id="yWNfFhgkX5kj5r2zyp7w-65" value="否" style="edgeLabel;html=1;align=center;verticalAlign=middle;resizable=0;points=[];" vertex="1" connectable="0" parent="yWNfFhgkX5kj5r2zyp7w-64">
          <mxGeometry x="-0.6561" y="1" relative="1" as="geometry">
            <mxPoint as="offset" />
          </mxGeometry>
        </mxCell>
        <mxCell id="yWNfFhgkX5kj5r2zyp7w-60" value="是否已经竞价完成" style="rhombus;whiteSpace=wrap;html=1;rounded=0;fillColor=#d80073;fontColor=#ffffff;strokeColor=#A50040;" vertex="1" parent="1">
          <mxGeometry x="760" y="190" width="93" height="80" as="geometry" />
        </mxCell>
        <mxCell id="yWNfFhgkX5kj5r2zyp7w-69" value="" style="edgeStyle=orthogonalEdgeStyle;rounded=0;orthogonalLoop=1;jettySize=auto;html=1;" edge="1" parent="1" source="yWNfFhgkX5kj5r2zyp7w-63" target="yWNfFhgkX5kj5r2zyp7w-68">
          <mxGeometry relative="1" as="geometry" />
        </mxCell>
        <mxCell id="yWNfFhgkX5kj5r2zyp7w-63" value="可用素材统一集合竞价" style="whiteSpace=wrap;html=1;fillColor=#f0a30a;fontColor=#000000;strokeColor=#BD7000;" vertex="1" parent="1">
          <mxGeometry x="930" y="-150" width="120" height="60" as="geometry" />
        </mxCell>
        <mxCell id="yWNfFhgkX5kj5r2zyp7w-68" value="渲染广告" style="rounded=1;whiteSpace=wrap;html=1;fillColor=#a0522d;fontColor=#ffffff;strokeColor=#6D1F00;" vertex="1" parent="1">
          <mxGeometry x="1130" y="-150" width="120" height="60" as="geometry" />
        </mxCell>
      </root>
    </mxGraphModel>
  </diagram>
</mxfile>
